<svg width="32" height="32" viewBox="0 0 32 32" fill="none" xmlns="http://www.w3.org/2000/svg">
<path fill-rule="evenodd" clip-rule="evenodd" d="M9.62624 7.99998C8.47424 7.99998 7.39424 8.44531 6.58624 9.25465C4.90891 10.9346 4.90891 13.6693 6.58757 15.352L15.9996 24.78L25.4129 15.352C27.0916 13.6693 27.0916 10.9346 25.4129 9.25465C23.7969 7.63465 20.9489 7.63731 19.3329 9.25465L16.9436 11.648C16.4422 12.1506 15.5569 12.1506 15.0556 11.648L12.6662 9.25331C11.8582 8.44531 10.7796 7.99998 9.62624 7.99998ZM15.9996 28C15.6462 28 15.3062 27.86 15.0569 27.608L4.69957 17.2346C1.98491 14.5146 1.98491 10.0893 4.69957 7.36931C6.01157 6.05731 7.76091 5.33331 9.62624 5.33331C11.4916 5.33331 13.2422 6.05731 14.5529 7.36931L15.9996 8.81865L17.4462 7.37065C18.7582 6.05731 20.5076 5.33331 22.3742 5.33331C24.2382 5.33331 25.9889 6.05731 27.2996 7.36931C30.0156 10.0893 30.0156 14.5146 27.3009 17.2346L16.9436 27.6093C16.6929 27.86 16.3542 28 15.9996 28Z" fill="#00D058"/>
<path d="M4 14.5L16 26.5L28 14.5V13.5L27 10V8.5L24.5 8L23 7H21L19.5 8.5L17 10H16H14L12.5 8.5L11.5 7H9.5H7.5L5.5 8.5L4 10V12.5V14.5Z" fill="#00D058"/>
</svg>
