<svg width="16" height="16" viewBox="0 0 16 16" fill="none" xmlns="http://www.w3.org/2000/svg">
<path fill-rule="evenodd" clip-rule="evenodd" d="M9.88567 7.99997L15.6097 2.27597C16.131 1.75463 16.131 0.911967 15.6097 0.390634C15.0883 -0.1307 14.2457 -0.1307 13.7243 0.390634L8.00033 6.11463L2.27633 0.390634C1.755 -0.1307 0.912333 -0.1307 0.391 0.390634C-0.130333 0.911967 -0.130333 1.75463 0.391 2.27597L6.115 7.99997L0.391 13.724C-0.130333 14.2453 -0.130333 15.088 0.391 15.6093C0.651 15.8693 0.992333 16 1.33367 16C1.675 16 2.01633 15.8693 2.27633 15.6093L8.00033 9.8853L13.7243 15.6093C13.9843 15.8693 14.3257 16 14.667 16C15.0083 16 15.3497 15.8693 15.6097 15.6093C16.131 15.088 16.131 14.2453 15.6097 13.724L9.88567 7.99997Z" fill="#A6AAB5"/>
</svg>
