<svg width="160" height="160" viewBox="0 0 160 160" fill="none" xmlns="http://www.w3.org/2000/svg">
<path fill-rule="evenodd" clip-rule="evenodd" d="M76.6677 97.331V62.671L95.3944 79.9977L76.6677 97.331ZM82.2611 49.6845C78.9411 46.6045 74.0944 45.8045 69.9211 47.6378C65.8544 49.4112 63.3344 53.2045 63.3344 57.5312V102.471C63.3344 106.798 65.8544 110.591 69.9211 112.364C71.4078 113.018 72.9878 113.331 74.5411 113.331C77.3611 113.331 80.1278 112.298 82.2544 110.324L106.534 87.8578C108.741 85.8178 110.001 82.9578 110.001 79.9978C110.001 77.0445 108.741 74.1778 106.534 72.1445L82.2611 49.6845ZM80.0018 133.334C50.5952 133.334 26.6685 109.407 26.6685 80.0002C26.6685 50.5935 50.5952 26.6669 80.0018 26.6669C109.408 26.6669 133.335 50.5935 133.335 80.0002C133.335 109.407 109.408 133.334 80.0018 133.334ZM80.0009 13.3335C43.2409 13.3335 13.3342 43.2402 13.3342 80.0002C13.3342 116.76 43.2409 146.667 80.0009 146.667C116.761 146.667 146.668 116.76 146.668 80.0002C146.668 43.2402 116.761 13.3335 80.0009 13.3335Z" fill="#00C4FF"/>
</svg>
